<svg width="17" height="18" viewBox="0 0 17 18" fill="none" xmlns="http://www.w3.org/2000/svg">
<mask id="mask0_268_246" style="mask-type:luminance" maskUnits="userSpaceOnUse" x="0" y="0" width="17" height="18">
<path d="M8.5 17.25C10.1317 17.25 11.7268 16.7662 13.0835 15.8596C14.4402 14.9531 15.4976 13.6646 16.122 12.1571C16.7464 10.6497 16.9098 8.99085 16.5915 7.39051C16.2732 5.79017 15.4874 4.32016 14.3336 3.16637C13.1798 2.01259 11.7098 1.22685 10.1095 0.908525C8.50915 0.590197 6.85035 0.753575 5.34286 1.378C3.83537 2.00242 2.5469 3.05984 1.64038 4.41655C0.733854 5.77326 0.25 7.36831 0.25 9C0.25 11.188 1.11919 13.2865 2.66637 14.8336C4.21354 16.3808 6.31196 17.25 8.5 17.25Z" fill="white"/>
</mask>
<g mask="url(#mask0_268_246)">
<path d="M8.5 17.25C10.1317 17.25 11.7268 16.7662 13.0835 15.8596C14.4402 14.9531 15.4976 13.6646 16.122 12.1571C16.7464 10.6497 16.9098 8.99085 16.5915 7.39051C16.2732 5.79017 15.4874 4.32016 14.3336 3.16637C13.1798 2.01259 11.7098 1.22685 10.1095 0.908525C8.50915 0.590197 6.85035 0.753575 5.34286 1.378C3.83537 2.00242 2.5469 3.05984 1.64038 4.41655C0.733854 5.77326 0.25 7.36831 0.25 9C0.25 11.188 1.11919 13.2865 2.66637 14.8336C4.21354 16.3808 6.31196 17.25 8.5 17.25Z" fill="#D8D8D8"/>
<path d="M8.5 17.25C10.1317 17.25 11.7268 16.7662 13.0835 15.8596C14.4402 14.9531 15.4976 13.6646 16.122 12.1571C16.7464 10.6497 16.9098 8.99085 16.5915 7.39051C16.2732 5.79017 15.4874 4.32016 14.3336 3.16637C13.1798 2.01259 11.7098 1.22685 10.1095 0.908525C8.50915 0.590197 6.85035 0.753575 5.34286 1.378C3.83537 2.00242 2.5469 3.05984 1.64038 4.41655C0.733854 5.77326 0.25 7.36831 0.25 9C0.25 11.188 1.11919 13.2865 2.66637 14.8336C4.21354 16.3808 6.31196 17.25 8.5 17.25Z" fill="#BBA9D1"/>
<path d="M5.77002 10.7101H5.50002C5.23002 10.6126 3.88002 10.0951 2.96502 9.84005C2.90949 9.82415 2.85992 9.79215 2.82254 9.74811C2.78517 9.70406 2.76168 9.64993 2.75502 9.59255C2.74075 9.48829 2.74733 9.38222 2.77436 9.28051C2.8014 9.1788 2.84836 9.08347 2.91252 9.00005C2.95793 8.93951 3.01682 8.89037 3.08451 8.85652C3.1522 8.82268 3.22684 8.80505 3.30252 8.80505C3.37961 8.79366 3.45794 8.79366 3.53502 8.80505C3.71296 8.87879 3.8796 8.97726 4.03002 9.09755L4.09752 9.15005L4.51752 9.44255L4.90752 9.72005L5.89002 10.1101C6.02502 10.1701 6.58002 10.4251 6.54252 10.5601C6.50502 10.6951 5.92002 10.6876 5.79252 10.6876L5.77002 10.7101Z" fill="#FDE7FF"/>
<path opacity="0.23" d="M3.31753 8.94752C3.37884 8.95259 3.43929 8.96518 3.49753 8.98502C3.68565 9.06642 3.86218 9.17233 4.02253 9.30002L4.85503 9.87752L6.49753 10.5825C6.20349 10.6162 5.90657 10.6162 5.61253 10.5825H5.57503C5.20753 10.44 3.92503 9.96002 3.03253 9.71252C3.00704 9.70539 2.98421 9.69092 2.96687 9.67092C2.94954 9.65092 2.93846 9.62626 2.93503 9.60002C2.90597 9.43585 2.94086 9.26678 3.03253 9.12752C3.06418 9.08448 3.10625 9.05019 3.15479 9.02789C3.20334 9.00559 3.25676 8.99599 3.31003 9.00002L3.31753 8.94752ZM3.31753 8.65502C3.21633 8.65443 3.11634 8.67712 3.02531 8.72133C2.93428 8.76555 2.85463 8.83011 2.79253 8.91002C2.65807 9.1132 2.60456 9.35936 2.64253 9.60002C2.65098 9.68987 2.68625 9.7751 2.74376 9.84465C2.80127 9.9142 2.87837 9.96484 2.96503 9.99002C3.88003 10.245 5.21503 10.74 5.48503 10.8525C5.53221 10.8604 5.58035 10.8604 5.62753 10.8525H5.81503C6.01753 10.8525 7.66003 11.0625 7.70503 10.8525C7.38253 10.665 6.20503 10.1025 5.98753 9.96752L5.01253 9.57752L4.62253 9.30752C4.48397 9.22127 4.35119 9.12607 4.22503 9.02252L4.15003 9.00002C3.98917 8.86518 3.80657 8.75867 3.61003 8.68502C3.52061 8.65494 3.42687 8.63974 3.33253 8.64002L3.31753 8.65502Z" fill="#FCE2BA"/>
<path d="M15.4225 14.9325C14.0891 14.9053 12.7599 14.7724 11.4475 14.535H11.3725C10.3772 14.4005 9.39239 14.1975 8.42501 13.9275C7.56251 13.665 6.71501 13.3275 5.89751 13.005L5.50001 12.87C4.75001 12.5625 4.09751 12.3075 3.52001 12.06L3.33251 12C2.9872 11.8654 2.65143 11.7076 2.32751 11.5275C1.87751 11.25 1.75001 10.8975 1.93751 10.5C1.9938 10.3791 2.0858 10.2783 2.20113 10.2112C2.31645 10.1442 2.44956 10.1141 2.58251 10.125H2.63501C2.6998 10.1175 2.76523 10.1175 2.83001 10.125C3.91727 10.3821 4.98296 10.7232 6.01751 11.145L7.35251 11.19L10.3525 11.295C9.68452 10.8094 8.91532 10.4812 8.10251 10.335C7.82501 10.26 7.57001 10.185 7.51751 9.9825C7.47208 9.83115 7.47279 9.66968 7.51954 9.51873C7.5663 9.36778 7.65698 9.23418 7.78001 9.135C7.96972 9.02174 8.18961 8.96938 8.41001 8.985C8.66259 8.99308 8.91377 9.02574 9.16001 9.0825C9.29499 9.1138 9.42777 9.15389 9.55751 9.2025C9.87061 9.3104 10.1954 9.38089 10.525 9.4125C11.0826 9.484 11.6341 9.59681 12.175 9.75C13.855 10.2 14.185 11.04 14.425 11.55C14.3575 11.3475 14.425 11.4975 14.425 11.4225L14.47 11.355H15.58C15.715 11.355 16.33 11.1975 16.33 11.355C16.3921 12.5753 16.1335 13.7906 15.58 14.88C15.5651 14.911 15.5431 14.9381 15.5157 14.959C15.4883 14.9798 15.4564 14.9939 15.4225 15V14.9325Z" fill="#EAE2F3"/>
<path d="M14.635 11.3475C14.6515 11.3557 14.6694 11.3599 14.6875 11.3599C14.7056 11.3599 14.7235 11.3557 14.74 11.3475H14.635Z" fill="#D67676"/>
<path fill-rule="evenodd" clip-rule="evenodd" d="M6.19749 3.48C5.88635 3.18291 5.47269 3.01714 5.04249 3.01714C4.61229 3.01714 4.19863 3.18291 3.88749 3.48C3.73442 3.63012 3.61283 3.80926 3.52982 4.00693C3.44681 4.20461 3.40405 4.41685 3.40405 4.63125C3.40405 4.84565 3.44681 5.05789 3.52982 5.25557C3.61283 5.45324 3.73442 5.63238 3.88749 5.7825L6.37749 8.25L8.89749 5.775C9.05034 5.62553 9.17178 5.44702 9.2547 5.24997C9.33761 5.05292 9.38032 4.84129 9.38032 4.6275C9.38032 4.41371 9.33761 4.20208 9.2547 4.00503C9.17178 3.80798 9.05034 3.62947 8.89749 3.48C8.59225 3.17643 8.18046 3.00418 7.74999 3C7.31585 3.00065 6.89898 3.17009 6.58749 3.4725L6.40749 3.66L6.19749 3.48Z" fill="#ECAA96"/>
<path d="M16.6675 11.4824C16.8081 12.1202 16.7586 12.7851 16.525 13.3949C16.3362 13.9982 16.0072 14.5482 15.565 14.9999C13.3987 14.8599 11.2409 14.6096 9.10001 14.2499C7.91501 14.0474 2.11751 11.5124 1.89251 11.3849C1.82339 11.2802 1.77841 11.1613 1.76081 11.0371C1.74321 10.9128 1.75344 10.7861 1.79076 10.6663C1.82808 10.5464 1.89155 10.4364 1.9766 10.3441C2.06164 10.2517 2.16613 10.1795 2.28251 10.1324C2.92001 9.94495 4.53251 10.9724 5.59001 11.0699C6.64751 11.1674 8.96501 11.2574 9.82751 11.2574C10.69 11.2574 9.07751 10.6574 8.63501 10.5074C8.19251 10.3574 7.52501 10.2074 7.38251 9.75745C7.24001 9.30745 7.69751 9.00745 8.08001 9.00745C8.77501 9.10681 9.45838 9.27514 10.12 9.50995C11.044 9.47992 11.9647 9.63549 12.8275 9.96745C13.5308 10.2556 14.1062 10.7884 14.4475 11.4674C14.5675 11.7224 16.54 11.3849 16.6675 11.4824Z" stroke="#493D57"/>
<path d="M2.58249 10.1025C2.31249 9.375 2.74749 9 3.24999 9C3.75249 9 4.26249 9.4575 5.08749 9.975C5.94314 10.4636 6.83295 10.8897 7.74999 11.25" stroke="#493D57"/>
<path d="M6.05505 3.84751C5.74354 3.54822 5.3283 3.38106 4.8963 3.38106C4.46431 3.38106 4.04907 3.54822 3.73755 3.84751C3.44435 4.1486 3.28027 4.55225 3.28027 4.97251C3.28027 5.39278 3.44435 5.79643 3.73755 6.09751L6.25005 8.62501L8.77755 6.15001C8.96483 5.96939 9.10562 5.74613 9.1879 5.49929C9.27017 5.25246 9.2915 4.98938 9.25005 4.73251C9.20422 4.47601 9.09802 4.23409 8.94023 4.02674C8.78243 3.81939 8.57756 3.65255 8.34255 3.54001C8.10959 3.42514 7.85222 3.36851 7.59255 3.37501C7.1546 3.37491 6.73425 3.54737 6.42255 3.85501L6.25005 4.03501L6.05505 3.84751Z" stroke="#77280C" stroke-linecap="round" stroke-linejoin="round"/>
</g>
</svg>
