<svg width="25" height="22" viewBox="0 0 22 17" fill="none" xmlns="http://www.w3.org/2000/svg">
                    <path d="M6.5 5.5H16.5V6.5H6.5V5.5ZM6.5 9.5H13.5V8.5H6.5V9.5ZM22.5 7.5C22.5148 8.59493 22.2643 9.67716 21.7697 10.6541C21.2751 11.6311 20.5512 12.4738 19.66 13.11L11.5 18.5V14.5H7.5C5.64348 14.5 3.86301 13.7625 2.55025 12.4497C1.2375 11.137 0.5 9.35652 0.5 7.5C0.5 5.64348 1.2375 3.86301 2.55025 2.55025C3.86301 1.2375 5.64348 0.5 7.5 0.5H15.5C17.3565 0.5 19.137 1.2375 20.4497 2.55025C21.7625 3.86301 22.5 5.64348 22.5 7.5ZM20.5 7.5C20.5 6.17392 19.9732 4.90215 19.0355 3.96447C18.0979 3.02678 16.8261 2.5 15.5 2.5H7.5C6.17392 2.5 4.90215 3.02678 3.96447 3.96447C3.02678 4.90215 2.5 6.17392 2.5 7.5C2.5 8.82608 3.02678 10.0979 3.96447 11.0355C4.90215 11.9732 6.17392 12.5 7.5 12.5H13.5V14.78L18.5 11.5C19.1336 11.0463 19.6469 10.4448 19.9955 9.74774C20.344 9.05069 20.5172 8.27913 20.5 7.5Z" fill="black" fill-opacity="0.6"></path>
                </svg>