<svg width="20" height="20" viewBox="0 0 20 20" fill="none" xmlns="http://www.w3.org/2000/svg">
<path d="M6 8.5C6 8.20333 6.08798 7.91332 6.2528 7.66665C6.41762 7.41997 6.65189 7.22771 6.92598 7.11418C7.20007 7.00065 7.50167 6.97094 7.79264 7.02882C8.08361 7.0867 8.35089 7.22956 8.56067 7.43934C8.77044 7.64912 8.91331 7.91639 8.97118 8.20736C9.02906 8.49834 8.99936 8.79994 8.88582 9.07403C8.77229 9.34811 8.58003 9.58238 8.33336 9.7472C8.08669 9.91203 7.79668 10 7.5 10C7.10218 10 6.72065 9.84196 6.43934 9.56066C6.15804 9.27936 6 8.89782 6 8.5ZM12.5 10C12.7967 10 13.0867 9.91203 13.3334 9.7472C13.58 9.58238 13.7723 9.34811 13.8858 9.07403C13.9994 8.79994 14.0291 8.49834 13.9712 8.20736C13.9133 7.91639 13.7704 7.64912 13.5607 7.43934C13.3509 7.22956 13.0836 7.0867 12.7926 7.02882C12.5017 6.97094 12.2001 7.00065 11.926 7.11418C11.6519 7.22771 11.4176 7.41997 11.2528 7.66665C11.088 7.91332 11 8.20333 11 8.5C11 8.89782 11.158 9.27936 11.4393 9.56066C11.7206 9.84196 12.1022 10 12.5 10ZM20 10C20 11.9778 19.4135 13.9112 18.3147 15.5557C17.2159 17.2002 15.6541 18.4819 13.8268 19.2388C11.9996 19.9957 9.98891 20.1937 8.0491 19.8079C6.10929 19.422 4.32746 18.4696 2.92894 17.0711C1.53041 15.6725 0.578004 13.8907 0.192152 11.9509C-0.193701 10.0111 0.00433284 8.00043 0.761209 6.17317C1.51809 4.3459 2.79981 2.78412 4.4443 1.6853C6.08879 0.58649 8.02219 0 10 0C11.3132 0 12.6136 0.258658 13.8268 0.761205C15.0401 1.26375 16.1425 2.00035 17.0711 2.92893C17.9997 3.85752 18.7363 4.95991 19.2388 6.17317C19.7413 7.38642 20 8.68678 20 10ZM18 10C18 8.41775 17.5308 6.87103 16.6518 5.55544C15.7727 4.23984 14.5233 3.21447 13.0615 2.60896C11.5997 2.00346 9.99113 1.84504 8.43928 2.15372C6.88743 2.4624 5.46197 3.22433 4.34315 4.34315C3.22433 5.46197 2.4624 6.88743 2.15372 8.43928C1.84504 9.99113 2.00347 11.5997 2.60897 13.0615C3.21447 14.5233 4.23985 15.7727 5.55544 16.6518C6.87104 17.5308 8.41775 18 10 18C12.1217 18 14.1566 17.1571 15.6569 15.6569C17.1572 14.1566 18 12.1217 18 10ZM10 14C8.40924 13.9986 6.88414 13.3655 5.76 12.24L5.05 13C6.36237 14.3099 8.14081 15.0455 9.995 15.0455C11.8492 15.0455 13.6276 14.3099 14.94 13L14.23 12.29C13.1002 13.3948 11.5802 14.0093 10 14Z" fill="black" fill-opacity="0.6"/>
</svg>
