<svg width="19" height="18" viewBox="0 0 19 18" fill="none" xmlns="http://www.w3.org/2000/svg">
<path d="M9.5 17.25C14.0564 17.25 17.75 13.5564 17.75 9C17.75 4.44365 14.0564 0.75 9.5 0.75C4.94365 0.75 1.25 4.44365 1.25 9C1.25 13.5564 4.94365 17.25 9.5 17.25Z" fill="#DF704D"/>
<path fill-rule="evenodd" clip-rule="evenodd" d="M9.15498 5.47499C8.86953 5.18496 8.52922 4.95462 8.15388 4.7974C7.77854 4.64017 7.37567 4.5592 6.96873 4.5592C6.56179 4.5592 6.15892 4.64017 5.78358 4.7974C5.40824 4.95462 5.06793 5.18496 4.78248 5.47499C4.20173 6.06193 3.87598 6.85429 3.87598 7.67999C3.87598 8.50569 4.20173 9.29805 4.78248 9.88499L9.49998 14.625L14.2175 9.88499C14.7982 9.29805 15.124 8.50569 15.124 7.67999C15.124 6.85429 14.7982 6.06193 14.2175 5.47499C13.9313 5.18499 13.5903 4.95476 13.2143 4.79768C12.8384 4.6406 12.4349 4.55981 12.0275 4.55999C11.6213 4.5625 11.2197 4.64605 10.8462 4.80574C10.4728 4.96544 10.1349 5.19806 9.85248 5.48999L9.49998 5.81999L9.15498 5.47499Z" fill="#FFF3F0" stroke="#77280C"/>
<path d="M9.15498 5.41505C8.86953 5.12502 8.52922 4.89469 8.15388 4.73746C7.77854 4.58024 7.37567 4.49927 6.96873 4.49927C6.56179 4.49927 6.15892 4.58024 5.78358 4.73746C5.40824 4.89469 5.06793 5.12502 4.78248 5.41505C4.20173 6.002 3.87598 6.79436 3.87598 7.62005C3.87598 8.44575 4.20173 9.23811 4.78248 9.82506L9.49998 14.5651L14.2175 9.82506C14.7982 9.23811 15.124 8.44575 15.124 7.62005C15.124 6.79436 14.7982 6.002 14.2175 5.41505C13.9313 5.12505 13.5903 4.89482 13.2143 4.73774C12.8384 4.58067 12.4349 4.49987 12.0275 4.50006C11.6218 4.50117 11.2204 4.58335 10.8469 4.74177C10.4734 4.90018 10.1353 5.13165 9.85248 5.42256L9.49998 5.76005L9.15498 5.41505Z" stroke="#77280C" stroke-linecap="round" stroke-linejoin="round"/>
</svg>
