<svg width="19" height="18" viewBox="0 0 19 18" fill="none" xmlns="http://www.w3.org/2000/svg">
<g clip-path="url(#clip0_268_279)">
<path d="M9.5 18C14.4706 18 18.5 13.9706 18.5 9C18.5 4.02944 14.4706 0 9.5 0C4.52944 0 0.5 4.02944 0.5 9C0.5 13.9706 4.52944 18 9.5 18Z" fill="#44BFD3"/>
<path d="M9.50004 15.5455C13.115 15.5455 16.0455 12.615 16.0455 9.00004C16.0455 5.38509 13.115 2.45459 9.50004 2.45459C5.88509 2.45459 2.95459 5.38509 2.95459 9.00004C2.95459 12.615 5.88509 15.5455 9.50004 15.5455Z" fill="#D5F9FE" stroke="#104E58"/>
<path d="M8.66547 7.26549C7.63456 6.66822 6.32547 6.92185 5.59729 7.86276L5.9082 8.23095L6.0882 8.13276C6.84093 7.71549 7.71638 7.58458 8.55911 7.76458L8.73093 7.31458L8.66547 7.27367V7.26549Z" fill="#104E58"/>
<path d="M13.3291 7.85453C12.5927 6.9218 11.2836 6.66816 10.2609 7.25725L10.1954 7.29816L10.3673 7.74816C11.21 7.56816 12.0854 7.70725 12.8382 8.11634L13.0182 8.21453L13.3291 7.84634V7.85453Z" fill="#104E58"/>
<path d="M7.30726 5.2609C6.83272 5.19545 5.8509 5.40817 5.35181 6.16908" stroke="#104E58" stroke-linecap="round"/>
<path d="M11.5454 5.2609C12.02 5.19545 13.0018 5.40817 13.5009 6.16908" stroke="#104E58" stroke-linecap="round"/>
<path d="M12.3473 9.81824H6.65277C6.2355 9.81824 5.95732 10.2355 6.12095 10.6201C6.5955 11.7328 7.4955 13.091 9.50004 13.091C11.5046 13.091 12.3964 11.7328 12.8791 10.6201C13.0428 10.2437 12.7646 9.81824 12.3473 9.81824Z" fill="#2199AC"/>
<path d="M9.50003 11.4546C8.25639 11.4546 7.04548 12.2728 7.86366 12.6819C8.40912 12.9546 8.95457 13.091 9.50003 13.091C10.0455 13.091 10.5909 12.9546 11.1364 12.6819C11.9546 12.2728 10.7437 11.4546 9.50003 11.4546Z" fill="#D5F9FE"/>
<path d="M12.5437 9.40906H6.4564C5.90822 9.40906 5.49913 9.94088 5.68731 10.4809C5.90822 11.1272 6.25186 11.9536 6.84095 12.6245C7.43822 13.3118 8.29731 13.8272 9.50822 13.8272C10.7191 13.8272 11.57 13.3118 12.1755 12.6245C12.7646 11.9536 13.1082 11.1272 13.3291 10.4809C13.5091 9.94088 13.1 9.40906 12.56 9.40906H12.5437ZM11.5537 12.0845C11.0873 12.6163 10.4409 13.0091 9.50004 13.0091C8.55913 13.0091 7.92095 12.6245 7.4464 12.0845C6.97186 11.5363 6.66913 10.8409 6.4564 10.2272H12.5273C12.3146 10.8409 12.02 11.5445 11.5373 12.0845H11.5537Z" fill="#104E58"/>
</g>
<defs>
<clipPath id="clip0_268_279">
<rect width="18" height="18" fill="white" transform="translate(0.5)"/>
</clipPath>
</defs>
</svg>
