<svg width="19" height="18" viewBox="0 0 19 18" fill="none" xmlns="http://www.w3.org/2000/svg">
<path d="M9.18577 17.25C13.7161 17.25 17.3886 13.5564 17.3886 9C17.3886 4.44365 13.7161 0.75 9.18577 0.75C4.65545 0.75 0.98291 4.44365 0.98291 9C0.98291 13.5564 4.65545 17.25 9.18577 17.25Z" fill="#F5BB5C"/>
<path fill-rule="evenodd" clip-rule="evenodd" d="M10.1477 15.36H8.26849C8.10355 15.3562 7.94642 15.2886 7.82976 15.1713C7.7131 15.054 7.64588 14.8959 7.64209 14.73V13.155H10.7741V14.73C10.7703 14.8959 10.7031 15.054 10.5864 15.1713C10.4698 15.2886 10.3126 15.3562 10.1477 15.36Z" fill="#FFE1B2"/>
<path fill-rule="evenodd" clip-rule="evenodd" d="M7.6421 13.5V13.185C7.65014 12.7826 7.58961 12.3818 7.46312 12C7.30809 11.6574 7.10465 11.3391 6.8591 11.055C6.42793 10.6993 6.07912 10.2534 5.83698 9.74817C5.59484 9.24298 5.46522 8.69074 5.45715 8.12998C5.45715 7.12746 5.85313 6.166 6.55796 5.45711C7.2628 4.74822 8.21876 4.34998 9.21555 4.34998C10.2123 4.34998 11.1683 4.74822 11.8731 5.45711C12.578 6.166 12.974 7.12746 12.974 8.12998C12.9593 8.70942 12.8181 9.27854 12.5603 9.79698C12.3026 10.3154 11.9346 10.7705 11.4825 11.13L11.4378 11.1675C11.3561 11.2382 11.2835 11.3188 11.2215 11.4075C11.1028 11.5739 11.0121 11.7589 10.9531 11.955C10.8301 12.3454 10.7697 12.753 10.7741 13.1625V13.5" fill="#FCF0DE"/>
<path d="M5.45715 2.76L6.24015 3.8025M13.2797 2.76L12.4892 3.8025M9.18572 1.5V3.075" stroke="#5D3B01" stroke-linecap="round" stroke-linejoin="round"/>
<path d="M8.55195 5.19751C8.00158 5.30394 7.4997 5.58524 7.12018 6.00001C6.72589 6.3898 6.44926 6.88382 6.32227 7.42501" stroke="white" stroke-width="2" stroke-linecap="round" stroke-linejoin="round"/>
<path d="M10.1477 15.36H8.26849C8.10355 15.3562 7.94642 15.2886 7.82976 15.1713C7.7131 15.054 7.64588 14.8959 7.64209 14.73V13.155H10.7741V14.73C10.7703 14.8959 10.7031 15.054 10.5864 15.1713C10.4698 15.2886 10.3126 15.3562 10.1477 15.36Z" stroke="#5D3B01" stroke-linecap="round" stroke-linejoin="round"/>
<path d="M7.64207 13.5V13.185C7.65012 12.7826 7.58958 12.3818 7.4631 12C7.39556 11.7979 7.29195 11.6098 7.15736 11.445C7.03166 11.2623 6.88664 11.0938 6.72485 10.9425C6.56961 10.8064 6.42502 10.6584 6.29233 10.5C6.02527 10.1733 5.81591 9.80294 5.67339 9.40502C5.52339 8.99716 5.45006 8.56482 5.45713 8.13002C5.46536 7.53447 5.61452 6.94945 5.89226 6.42341C6.17 5.89736 6.56833 5.44542 7.05428 5.105C7.54022 4.76458 8.0998 4.54547 8.68669 4.46582C9.27358 4.38616 9.87089 4.44825 10.4292 4.64694C10.9875 4.84563 11.4906 5.17521 11.8971 5.60839C12.3035 6.04157 12.6016 6.5659 12.7665 7.13795C12.9314 7.71 12.9584 8.31333 12.8453 8.89799C12.7323 9.48265 12.4824 10.0318 12.1164 10.5C11.9157 10.7493 11.6909 10.978 11.4452 11.1825C11.3588 11.2556 11.2812 11.3387 11.214 11.43C11.1005 11.5985 11.0125 11.783 10.953 11.9775C10.8266 12.3671 10.7661 12.7753 10.7741 13.185V13.5" stroke="#5D3B01" stroke-linecap="round" stroke-linejoin="round"/>
</svg>
