<svg width="19" height="18" viewBox="0 0 19 18" fill="none" xmlns="http://www.w3.org/2000/svg">
<path d="M9.5 17.25C14.0564 17.25 17.75 13.5564 17.75 9C17.75 4.44365 14.0564 0.75 9.5 0.75C4.94365 0.75 1.25 4.44365 1.25 9C1.25 13.5564 4.94365 17.25 9.5 17.25Z" fill="#378FE9"/>
<path fill-rule="evenodd" clip-rule="evenodd" d="M9.28253 7.155H4.91003C4.76859 7.15367 4.6284 7.18154 4.49824 7.23689C4.36807 7.29224 4.25074 7.37386 4.15358 7.47665C4.05642 7.57944 3.98153 7.70119 3.9336 7.83426C3.88567 7.96733 3.86573 8.10887 3.87503 8.25C3.89244 8.5319 4.02034 8.79556 4.23097 8.98372C4.4416 9.17188 4.71795 9.26937 5.00003 9.255H5.18753C4.93889 9.24506 4.69648 9.33429 4.51363 9.50308C4.33078 9.67186 4.22247 9.90636 4.21253 10.155C4.20258 10.4036 4.29181 10.6461 4.4606 10.8289C4.62938 11.0117 4.86389 11.1201 5.11253 11.13C4.96662 11.2391 4.85567 11.3884 4.79323 11.5595C4.73079 11.7307 4.71957 11.9163 4.76094 12.0937C4.80232 12.2711 4.89449 12.4327 5.02619 12.5585C5.15789 12.6844 5.32341 12.7692 5.50253 12.8025C5.38882 13.0026 5.35405 13.238 5.40503 13.4625C5.46121 13.6823 5.59065 13.8764 5.772 14.0128C5.95334 14.1491 6.17575 14.2196 6.40253 14.2125H9.10253C9.45685 14.2125 9.80971 14.1671 10.1525 14.0775L11.8475 13.5825H14.0975C15.2825 13.5375 15.5975 8.115 14.0975 8.115H13.4525C13.3475 8.115 13.28 7.89 12.9875 7.575C12.5525 7.11 12.065 6.51 11.72 6.165C10.8858 5.44074 10.2027 4.55887 9.71003 3.57001C9.43253 2.97001 9.40253 2.6925 8.82503 2.6925C8.60396 2.73254 8.40535 2.85251 8.26704 3.02955C8.12873 3.20658 8.06038 3.42832 8.07503 3.6525C8.07503 3.9675 8.14253 4.2825 8.19503 4.5975C8.44855 5.5165 8.84054 6.39153 9.35753 7.1925" fill="#D0E8FF"/>
<path d="M9.28247 7.155H4.90997C4.62723 7.15943 4.35768 7.27534 4.15997 7.4775C4.0177 7.63419 3.92496 7.82946 3.89343 8.03874C3.86191 8.24802 3.89301 8.46195 3.98282 8.65359C4.07262 8.84523 4.21712 9.00602 4.39812 9.11571C4.57912 9.2254 4.78853 9.27908 4.99997 9.27H5.18747C5.0638 9.26798 4.94098 9.29084 4.82632 9.33724C4.71166 9.38363 4.6075 9.45261 4.52004 9.54008C4.43258 9.62754 4.3636 9.7317 4.3172 9.84635C4.27081 9.96101 4.24794 10.0838 4.24997 10.2075C4.24921 10.4437 4.33763 10.6714 4.49753 10.8452C4.65744 11.0191 4.87705 11.1261 5.11247 11.145C4.96481 11.2517 4.85238 11.4001 4.78958 11.5712C4.72678 11.7422 4.71647 11.9281 4.75997 12.105C4.80169 12.2833 4.89512 12.4453 5.02854 12.5707C5.16196 12.6961 5.32944 12.7794 5.50997 12.81C5.39627 13.0101 5.36149 13.2455 5.41247 13.47C5.46866 13.6898 5.5981 13.8839 5.77944 14.0203C5.96079 14.1566 6.1832 14.2271 6.40997 14.22H9.10997C9.46406 14.2165 9.8165 14.1712 10.16 14.085L11.855 13.59H14.105C15.29 13.5525 15.605 8.13 14.105 8.13H13.46C13.355 8.13 13.2875 7.905 12.995 7.59C12.5525 7.125 12.065 6.5175 11.75 6.18C10.9157 5.45574 10.2326 4.57387 9.73997 3.585C9.46247 2.9775 9.43247 2.685 8.85497 2.7075C8.62833 2.73562 8.4221 2.85248 8.2815 3.03245C8.1409 3.21241 8.07742 3.4408 8.10497 3.6675C8.10497 3.9675 8.14247 4.275 8.18747 4.575C8.43791 5.49042 8.83016 6.36096 9.34997 7.155" stroke="#004182" stroke-linecap="round" stroke-linejoin="round"/>
</svg>
