<svg width="26" height="26" viewBox="0 0 20 22" fill="none" xmlns="http://www.w3.org/2000/svg">
                    <path d="M4.81742 18H14.3544V6.48L8.38305 0L7.54535 0.6975C7.45943 0.7725 7.39499 0.8775 7.35203 1.0125C7.30907 1.1475 7.28759 1.3125 7.28759 1.5075V1.7325L8.25418 6.48H1.83174C1.48807 6.48 1.18735 6.615 0.929592 6.885C0.671837 7.155 0.542959 7.47 0.542959 7.83V9.67138C0.542959 9.77879 0.532219 9.88875 0.510738 10.0013C0.48926 10.1138 0.5 10.2225 0.542959 10.3275L3.2494 16.8525C3.37653 17.1713 3.58843 17.4422 3.88509 17.6653C4.18174 17.8884 4.49252 18 4.81742 18ZM13.0656 16.65H4.53819L1.83174 9.9225V7.83H9.84367L8.70525 2.2275L13.0656 7.0425V16.65ZM14.3544 6.48V7.83H17.2112V16.65H14.3544V18H18.5V6.48H14.3544Z" fill="black" fill-opacity="0.6"></path>
                </svg>