<svg width="19" height="18" viewBox="0 0 19 18" fill="none" xmlns="http://www.w3.org/2000/svg">
<g clip-path="url(#clip0_268_261)">
<path d="M9.5 17.25C14.0564 17.25 17.75 13.5564 17.75 9C17.75 4.44365 14.0564 0.75 9.5 0.75C4.94365 0.75 1.25 4.44365 1.25 9C1.25 13.5564 4.94365 17.25 9.5 17.25Z" fill="#6DAE4F"/>
<path d="M9.5 17.25C14.0564 17.25 17.75 13.5564 17.75 9C17.75 4.44365 14.0564 0.75 9.5 0.75C4.94365 0.75 1.25 4.44365 1.25 9C1.25 13.5564 4.94365 17.25 9.5 17.25Z" fill="#6DAE4F"/>
<mask id="mask0_268_261" style="mask-type:luminance" maskUnits="userSpaceOnUse" x="1" y="0" width="17" height="18">
<path d="M9.5 17.25C14.0564 17.25 17.75 13.5564 17.75 9C17.75 4.44365 14.0564 0.75 9.5 0.75C4.94365 0.75 1.25 4.44365 1.25 9C1.25 13.5564 4.94365 17.25 9.5 17.25Z" fill="white"/>
</mask>
<g mask="url(#mask0_268_261)">
<path fill-rule="evenodd" clip-rule="evenodd" d="M15.395 11.25L14.8625 10.8525C14.8625 10.8525 14.645 8.7375 14.2625 8.3325C13.5748 7.51782 13.0846 6.5553 12.83 5.52C12.65 4.8975 12.5225 4.68 11.96 4.665C11.7354 4.69134 11.5305 4.80556 11.3899 4.98266C11.2494 5.15976 11.1847 5.38532 11.21 5.61C11.216 5.89386 11.2411 6.17699 11.285 6.4575C11.4416 7.19956 11.6676 7.92525 11.96 8.625L11.75 8.46L6.59001 4.56C6.50151 4.47451 6.39615 4.40841 6.28067 4.36593C6.16518 4.32345 6.04211 4.30552 5.9193 4.31329C5.7965 4.32105 5.67666 4.35434 5.56745 4.41102C5.45823 4.46771 5.36204 4.54654 5.28501 4.6425C5.21481 4.7413 5.16703 4.85423 5.14501 4.97341C5.12299 5.09259 5.12725 5.21514 5.15751 5.3325C5.18638 5.45062 5.24011 5.56123 5.31513 5.65693C5.39014 5.75264 5.4847 5.83124 5.59251 5.8875L8.24751 7.8825L9.04251 8.4825L4.79751 5.2875C4.70945 5.20228 4.60464 5.13628 4.48974 5.09367C4.37484 5.05107 4.25234 5.03279 4.13001 5.04C4.00778 5.04799 3.88858 5.08148 3.78008 5.13831C3.67157 5.19515 3.57617 5.27407 3.50001 5.37C3.42981 5.4688 3.38203 5.58173 3.36001 5.70091C3.33799 5.82009 3.34225 5.94264 3.37251 6.06C3.39868 6.17821 3.45054 6.28921 3.52442 6.38513C3.5983 6.48105 3.69239 6.55953 3.80001 6.615L6.45501 8.61L8.04501 9.81L4.59501 7.215C4.47078 7.07934 4.30511 6.98865 4.12389 6.95709C3.94267 6.92553 3.7561 6.95488 3.59333 7.04056C3.43055 7.12623 3.30073 7.2634 3.22414 7.43064C3.14756 7.59789 3.12852 7.78579 3.17001 7.965C3.19618 8.08321 3.24804 8.19421 3.32192 8.29013C3.3958 8.38605 3.48989 8.46453 3.59751 8.52L6.25251 10.515L7.58001 11.5125L4.92501 9.54C4.83737 9.45112 4.73192 9.38178 4.61559 9.33654C4.49926 9.2913 4.37467 9.27118 4.25001 9.2775C4.12968 9.28358 4.01183 9.31396 3.90355 9.3668C3.79528 9.41965 3.69883 9.49387 3.62001 9.585C3.54554 9.68463 3.49413 9.79956 3.46948 9.92148C3.44484 10.0434 3.44758 10.1693 3.47751 10.29C3.50307 10.4113 3.55448 10.5257 3.62826 10.6254C3.70203 10.725 3.79643 10.8076 3.90501 10.8675L8.75001 14.535C9.09913 14.7941 9.49694 14.9801 9.91962 15.082C10.3423 15.1838 10.7812 15.1993 11.21 15.1275L12.005 15.7275C12.7153 15.1787 13.3418 14.5294 13.865 13.8C14.4584 13.0085 14.9615 12.1532 15.365 11.25H15.395Z" fill="#DCF0CB"/>
<path fill-rule="evenodd" clip-rule="evenodd" d="M12.2075 8.82L11.4125 8.25L12.2075 8.82Z" fill="#93D870"/>
<path d="M14.825 10.4551C14.7425 9.83256 14.6825 7.97256 14.3975 7.67256C13.6857 7.09853 13.1438 6.34141 12.83 5.48256C12.65 4.86006 12.5225 4.64256 11.96 4.62756C11.7354 4.65391 11.5304 4.76812 11.3899 4.94522C11.2493 5.12232 11.1846 5.34789 11.21 5.57256C11.216 5.85642 11.2411 6.13956 11.285 6.42006C11.4493 7.20161 11.675 7.96899 11.96 8.71506L6.58996 4.68756C6.50261 4.59989 6.39755 4.53187 6.28181 4.48803C6.16607 4.4442 6.04231 4.42557 5.91879 4.43337C5.79527 4.44118 5.67484 4.47525 5.56554 4.53332C5.45624 4.59138 5.36059 4.67209 5.28496 4.77006C5.22073 4.86998 5.17763 4.98199 5.15833 5.0992C5.13903 5.2164 5.14394 5.33632 5.17275 5.45156C5.20156 5.56679 5.25366 5.67491 5.32584 5.76924C5.39803 5.86358 5.48877 5.94213 5.59246 6.00006L8.24747 8.01006L9.04247 8.61006L4.79746 5.41506C4.7094 5.32984 4.6046 5.26384 4.4897 5.22124C4.3748 5.17863 4.2523 5.16036 4.12996 5.16756C4.00753 5.17462 3.88801 5.2077 3.77937 5.26461C3.67073 5.32151 3.57548 5.40093 3.49996 5.49756C3.43023 5.59658 3.38272 5.70951 3.36072 5.82861C3.33871 5.94771 3.34272 6.07016 3.37246 6.18756C3.39952 6.30637 3.45167 6.41802 3.5254 6.51504C3.59913 6.61205 3.69274 6.69218 3.79996 6.75006L6.45497 8.74506L8.04497 9.94506L4.59496 7.34256C4.50868 7.25443 4.40435 7.18601 4.28913 7.14199C4.17391 7.09797 4.05053 7.07941 3.92746 7.08756C3.80395 7.09452 3.68329 7.12752 3.57343 7.18439C3.46356 7.24127 3.36696 7.32073 3.28996 7.41756C3.21977 7.51636 3.17199 7.62929 3.14997 7.74847C3.12794 7.86765 3.13221 7.9902 3.16246 8.10756C3.19134 8.22569 3.24507 8.33629 3.32008 8.432C3.3951 8.5277 3.48966 8.60631 3.59746 8.66256L6.25247 10.6651L7.57996 11.6626L4.92496 9.66756C4.83717 9.57977 4.73131 9.51216 4.61474 9.46942C4.49818 9.42668 4.3737 9.40983 4.24996 9.42006C4.12833 9.42841 4.01001 9.46337 3.90338 9.52248C3.79674 9.58159 3.70439 9.66339 3.63285 9.76212C3.56131 9.86084 3.51233 9.97408 3.48937 10.0938C3.4664 10.2136 3.47002 10.3369 3.49996 10.4551C3.52696 10.5749 3.57901 10.6876 3.65269 10.7858C3.72637 10.8841 3.82002 10.9656 3.92746 11.0251L8.74997 14.5351C9.09909 14.7942 9.49689 14.9802 9.91958 15.082C10.3423 15.1838 10.7812 15.1993 11.21 15.1276" stroke="#165209" stroke-linecap="round" stroke-linejoin="round"/>
<path fill-rule="evenodd" clip-rule="evenodd" d="M17.585 11.61L17.06 11.2125C17.06 11.2125 16.835 9.09751 16.4525 8.69251C15.7675 7.87605 15.2776 6.91419 15.02 5.88001C14.84 5.25001 14.75 5.04001 14.15 5.02501C14.0384 5.03521 13.9301 5.06848 13.8319 5.1227C13.7338 5.17692 13.648 5.25092 13.58 5.34001C13.5054 5.43124 13.4508 5.53715 13.4198 5.65086C13.3888 5.76456 13.382 5.88353 13.4 6.00001C13.406 6.28387 13.4311 6.567 13.475 6.84751C13.685 7.93501 13.91 8.83501 13.94 8.88751L8.8625 5.07001C8.774 4.98452 8.66864 4.91842 8.55316 4.87594C8.43767 4.83346 8.3146 4.81553 8.1918 4.8233C8.06899 4.83106 7.94916 4.86435 7.83994 4.92103C7.73072 4.97772 7.63453 5.05655 7.5575 5.15251C7.4873 5.25131 7.43952 5.36424 7.4175 5.48342C7.39548 5.6026 7.39975 5.72515 7.43 5.84251C7.45887 5.96063 7.51261 6.07124 7.58762 6.16694C7.66263 6.26265 7.7572 6.34125 7.865 6.39751L10.5125 8.39251L11.315 8.99251L7.07 5.80501C6.98236 5.71613 6.87691 5.64679 6.76058 5.60155C6.64425 5.55631 6.51966 5.53619 6.395 5.54251C6.2718 5.54677 6.15121 5.57909 6.04239 5.63701C5.93358 5.69493 5.83942 5.77692 5.76709 5.87674C5.69475 5.97656 5.64616 6.09157 5.625 6.21301C5.60385 6.33445 5.61069 6.45911 5.645 6.57751C5.67779 6.694 5.73392 6.80261 5.80999 6.89673C5.88606 6.99085 5.98048 7.06852 6.0875 7.12501L8.75 9.12751L10.3475 10.32L6.8675 7.72501C6.77884 7.63843 6.67285 7.57162 6.55651 7.52896C6.44017 7.4863 6.31611 7.46876 6.1925 7.47751C6.06918 7.48539 5.94885 7.51879 5.83911 7.57559C5.72937 7.6324 5.63263 7.71137 5.555 7.80751C5.48786 7.90773 5.44248 8.02093 5.42181 8.13978C5.40114 8.25863 5.40564 8.3805 5.435 8.49751C5.46387 8.61563 5.51761 8.72624 5.59262 8.82194C5.66763 8.91765 5.7622 8.99625 5.87 9.05251L8.5175 11.0475L9.845 12.045L7.1975 10.05C7.1136 9.96221 7.01196 9.89329 6.89934 9.84784C6.78673 9.80239 6.66572 9.78145 6.54439 9.78642C6.42305 9.79139 6.30416 9.82215 6.19563 9.87665C6.08711 9.93115 5.99144 10.0081 5.915 10.1025C5.84053 10.2021 5.78912 10.3171 5.76448 10.439C5.73983 10.5609 5.74257 10.6868 5.7725 10.8075C5.79949 10.9273 5.85154 11.04 5.92522 11.1383C5.99891 11.2365 6.09255 11.3181 6.2 11.3775L10.9475 14.9325C11.6577 15.3438 12.4535 15.5851 13.2725 15.6375C13.5704 15.8221 13.8812 15.985 14.2025 16.125C15.163 15.9506 16.0196 15.4136 16.595 14.625C17.2034 13.7338 17.5466 12.6884 17.585 11.61Z" fill="#DDF6D1"/>
<path d="M6.34241 2.04001L6.60491 3.21001M10.0624 3.47251L9.07991 4.16251M8.55491 1.82251L7.80491 3.68251" stroke="#165209" stroke-linecap="round" stroke-linejoin="round"/>
<path fill-rule="evenodd" clip-rule="evenodd" d="M6.34241 2.04001L6.60491 3.21001L6.34241 2.04001ZM10.0624 3.47251L9.07991 4.16251L10.0624 3.47251ZM8.55491 1.82251L7.80491 3.68251L8.55491 1.82251ZM6.34241 2.04001L6.60491 3.21001L6.34241 2.04001ZM10.0624 3.47251L9.07991 4.16251L10.0624 3.47251ZM8.55491 1.82251L7.80491 3.68251L8.55491 1.82251Z" fill="#231F20"/>
<path d="M17.5325 11.61C17.2936 11.3566 17.112 11.0548 17 10.725C16.94 10.4775 16.925 10.2225 16.8725 9.97501C16.843 9.52124 16.6985 9.08245 16.4525 8.70001C15.7675 7.88355 15.2776 6.92169 15.02 5.88751C14.84 5.25001 14.75 5.04001 14.15 5.02501C14.0384 5.03521 13.9301 5.06848 13.8319 5.1227C13.7338 5.17692 13.648 5.25092 13.58 5.34001C13.5054 5.43124 13.4508 5.53715 13.4198 5.65086C13.3888 5.76456 13.382 5.88353 13.4 6.00001C13.406 6.28387 13.4311 6.567 13.475 6.84751C13.685 7.93501 13.91 8.83501 13.94 8.88751L8.8625 5.07001C8.774 4.98452 8.66864 4.91842 8.55316 4.87594C8.43767 4.83346 8.3146 4.81553 8.1918 4.8233C8.06899 4.83106 7.94916 4.86435 7.83994 4.92103C7.73072 4.97772 7.63453 5.05655 7.5575 5.15251C7.4873 5.25131 7.43952 5.36424 7.4175 5.48342C7.39548 5.6026 7.39975 5.72515 7.43 5.84251C7.45887 5.96063 7.51261 6.07124 7.58762 6.16694C7.66263 6.26265 7.7572 6.34125 7.865 6.39751L10.5125 8.39251L11.315 8.99251L7.07 5.80501C6.98236 5.71613 6.87691 5.64679 6.76058 5.60155C6.64425 5.55631 6.51966 5.53619 6.395 5.54251C6.2718 5.54677 6.15121 5.57909 6.04239 5.63701C5.93358 5.69493 5.83942 5.77692 5.76709 5.87674C5.69475 5.97656 5.64616 6.09157 5.625 6.21301C5.60385 6.33445 5.61069 6.45911 5.645 6.57751C5.67779 6.694 5.73392 6.80261 5.80999 6.89673C5.88606 6.99085 5.98048 7.06852 6.0875 7.12501L8.75 9.12751L10.3475 10.32L6.8675 7.72501C6.77884 7.63843 6.67285 7.57162 6.55651 7.52896C6.44017 7.4863 6.31611 7.46876 6.1925 7.47751C6.06918 7.48539 5.94885 7.51879 5.83911 7.57559C5.72937 7.6324 5.63263 7.71137 5.555 7.80751C5.48786 7.90773 5.44248 8.02093 5.42181 8.13978C5.40114 8.25863 5.40564 8.3805 5.435 8.49751C5.46387 8.61563 5.51761 8.72624 5.59262 8.82194C5.66763 8.91765 5.7622 8.99625 5.87 9.05251L8.5175 11.0475L9.845 12.045L7.1975 10.05C7.1136 9.96221 7.01196 9.89329 6.89934 9.84784C6.78673 9.80239 6.66572 9.78145 6.54439 9.78642C6.42305 9.79139 6.30416 9.82215 6.19563 9.87665C6.08711 9.93115 5.99144 10.0081 5.915 10.1025C5.84053 10.2021 5.78912 10.3171 5.76448 10.439C5.73983 10.5609 5.74257 10.6868 5.7725 10.8075C5.79949 10.9273 5.85154 11.04 5.92522 11.1383C5.99891 11.2365 6.09255 11.3181 6.2 11.3775L10.9475 14.9325C11.3402 15.2285 11.7979 15.4265 12.2825 15.51C12.4925 15.555 12.7175 15.57 12.965 15.6225C13.3237 15.6779 13.6708 15.7919 13.9925 15.96C14.1072 16.0196 14.2326 16.0556 14.3614 16.0659C14.4902 16.0762 14.6198 16.0606 14.7425 16.02C15.5688 15.7379 16.2922 15.2156 16.82 14.52C17.3215 13.8394 17.6087 13.0247 17.645 12.18C17.6644 11.9831 17.6253 11.7848 17.5325 11.61Z" stroke="#165209" stroke-linecap="round" stroke-linejoin="round"/>
</g>
</g>
<defs>
<clipPath id="clip0_268_261">
<rect width="18" height="18" fill="white" transform="translate(0.5)"/>
</clipPath>
</defs>
</svg>
