<svg width="25" height="25" viewBox="0 0 20 18" fill="none" xmlns="http://www.w3.org/2000/svg">
												<path d="M6.49998 0.0999756C4.3031 0.0999756 2.49998 1.9031 2.49998 4.09998V11.2L1.34998 10.05L0.224976 11.1875L3.29998 14.2625L6.37498 11.1875L5.24998 10.0625L4.09998 11.2V4.09998C4.09998 2.77654 5.17654 1.69998 6.49998 1.69998H10.9V0.0999756H6.49998ZM13.7 2.73748L10.6125 5.82498L11.75 6.94998L12.9 5.79998V12.9C12.9 14.2234 11.8234 15.3 10.5 15.3H6.09998V16.9H10.5C12.6969 16.9 14.5 15.0968 14.5 12.9V5.79998L15.65 6.94998L16.775 5.81248L13.7 2.73748Z" fill="black" fill-opacity="0.6"></path>
											</svg>