<svg width="20" height="16" viewBox="0 0 20 16" fill="none" xmlns="http://www.w3.org/2000/svg">
<path d="M17 0H3C2.20435 0 1.44129 0.316071 0.87868 0.87868C0.316071 1.44129 0 2.20435 0 3V13C0 13.7956 0.316071 14.5587 0.87868 15.1213C1.44129 15.6839 2.20435 16 3 16H17C17.7956 16 18.5587 15.6839 19.1213 15.1213C19.6839 14.5587 20 13.7956 20 13V3C20 2.20435 19.6839 1.44129 19.1213 0.87868C18.5587 0.316071 17.7956 0 17 0ZM18 13C18.0008 13.1316 17.9755 13.2621 17.9258 13.3839C17.876 13.5057 17.8027 13.6166 17.71 13.71L14 10L12 12L6 6L2 10V3C2 2.73478 2.10536 2.48043 2.29289 2.29289C2.48043 2.10536 2.73478 2 3 2H17C17.2652 2 17.5196 2.10536 17.7071 2.29289C17.8946 2.48043 18 2.73478 18 3V13ZM16 6C16 6.39556 15.8827 6.78224 15.6629 7.11114C15.4432 7.44004 15.1308 7.69638 14.7654 7.84776C14.3999 7.99913 13.9978 8.03874 13.6098 7.96157C13.2219 7.8844 12.8655 7.69392 12.5858 7.41421C12.3061 7.13451 12.1156 6.77814 12.0384 6.39018C11.9613 6.00222 12.0009 5.60009 12.1522 5.23463C12.3036 4.86918 12.56 4.55682 12.8889 4.33706C13.2178 4.1173 13.6044 4 14 4C14.5304 4 15.0391 4.21071 15.4142 4.58579C15.7893 4.96086 16 5.46957 16 6Z" fill="black" fill-opacity="0.6"/>
</svg>
